<svg width="12" height="10" viewBox="0 0 12 10" fill="none" xmlns="http://www.w3.org/2000/svg">
<path d="M6.00004 8.00001C5.52536 8.00001 5.06135 7.85926 4.66667 7.59554C4.27199 7.33183 3.96438 6.957 3.78273 6.51845C3.60108 6.07991 3.55355 5.59735 3.64615 5.1318C3.73876 4.66624 3.96734 4.2386 4.30298 3.90296C4.63863 3.56731 5.06627 3.33873 5.53182 3.24613C5.99738 3.15352 6.47994 3.20105 6.91848 3.3827C7.35702 3.56435 7.73185 3.87197 7.99556 4.26664C8.25928 4.66132 8.40004 5.12534 8.40004 5.60001C8.40004 6.23653 8.14718 6.84698 7.69709 7.29707C7.24701 7.74716 6.63656 8.00001 6.00004 8.00001ZM6.00004 4.25001C5.73303 4.25001 5.47202 4.32919 5.25002 4.47753C5.02801 4.62587 4.85498 4.83671 4.7528 5.08339C4.65062 5.33007 4.62389 5.60151 4.67598 5.86338C4.72807 6.12526 4.85664 6.36581 5.04544 6.55461C5.23424 6.74341 5.47479 6.87198 5.73667 6.92407C5.99854 6.97616 6.26998 6.94943 6.51666 6.84725C6.76334 6.74507 6.97418 6.57204 7.12252 6.35003C7.27086 6.12803 7.35004 5.86702 7.35004 5.60001C7.34807 5.24258 7.2052 4.90034 6.95246 4.6476C6.69971 4.39485 6.35747 4.25198 6.00004 4.25001Z" fill="#61738E"/>
<path d="M11.4375 6.08751C11.3562 6.08639 11.2762 6.06692 11.2035 6.03055C11.1308 5.99419 11.0672 5.94188 11.0175 5.87751C10.8002 5.60073 10.5221 5.37764 10.2048 5.22548C9.88749 5.07333 9.53943 4.99618 9.18754 5.00001C9.0483 5.00001 8.91476 4.9447 8.81631 4.84624C8.71785 4.74779 8.66254 4.61425 8.66254 4.47501C8.66254 4.33577 8.71785 4.20224 8.81631 4.10378C8.91476 4.00532 9.0483 3.95001 9.18754 3.95001C9.70536 3.95174 10.2158 4.07314 10.6789 4.30472C11.1421 4.5363 11.5455 4.87179 11.8575 5.28501C11.9013 5.3406 11.9333 5.40446 11.9517 5.47274C11.9702 5.54103 11.9746 5.61234 11.9648 5.68238C11.955 5.75243 11.9312 5.81977 11.8947 5.88037C11.8582 5.94097 11.8099 5.99357 11.7525 6.03501C11.6551 6.08343 11.5454 6.1017 11.4375 6.08751Z" fill="#61738E"/>
<path d="M0.56251 6.08748C0.449173 6.08593 0.33911 6.04924 0.24751 5.98248C0.190196 5.94103 0.141848 5.88843 0.105368 5.82783C0.068888 5.76724 0.0450285 5.6999 0.035222 5.62985C0.0254154 5.5598 0.029864 5.4885 0.0483006 5.42021C0.0667372 5.35193 0.0987817 5.28807 0.14251 5.23248C0.455747 4.82159 0.859714 4.48866 1.32287 4.25969C1.78603 4.03071 2.29584 3.91188 2.81251 3.91248C2.95175 3.91248 3.08528 3.96779 3.18374 4.06625C3.2822 4.1647 3.33751 4.29824 3.33751 4.43748C3.33751 4.57672 3.2822 4.71025 3.18374 4.80871C3.08528 4.90717 2.95175 4.96248 2.81251 4.96248C2.45749 4.96306 2.10744 5.04599 1.7899 5.20476C1.47236 5.36353 1.19599 5.59381 0.98251 5.87748C0.93283 5.94184 0.869256 5.99416 0.796532 6.03052C0.723807 6.06688 0.643811 6.08635 0.56251 6.08748Z" fill="#61738E"/>
<path d="M8.69998 9.64998C8.60156 9.65121 8.50483 9.62434 8.42114 9.57253C8.33745 9.52072 8.27027 9.44612 8.22748 9.35748C8.02482 8.93903 7.70838 8.58613 7.31443 8.3392C6.92047 8.09227 6.46493 7.96131 5.99998 7.96131C5.53504 7.96131 5.07949 8.09227 4.68554 8.3392C4.29158 8.58613 3.97515 8.93903 3.77248 9.35748C3.71082 9.4828 3.6019 9.57848 3.46969 9.62349C3.33747 9.6685 3.1928 9.65914 3.06748 9.59748C2.94217 9.53582 2.84648 9.4269 2.80147 9.29469C2.75646 9.16247 2.76582 9.01779 2.82748 8.89248C3.23834 8.05196 3.96459 7.40778 4.84813 7.10015C5.73167 6.79253 6.70096 6.84638 7.54498 7.24998C8.25261 7.59746 8.825 8.16985 9.17248 8.87748C9.20297 8.93994 9.22076 9.00784 9.22481 9.07723C9.22886 9.14662 9.21908 9.21612 9.19606 9.2817C9.17304 9.34729 9.13722 9.40764 9.09069 9.45928C9.04415 9.51091 8.98783 9.55279 8.92498 9.58248C8.85686 9.62356 8.77947 9.64678 8.69998 9.64998Z" fill="#61738E"/>
<path d="M2.81254 4.99996C2.27547 4.99996 1.76041 4.78661 1.38065 4.40685C1.00088 4.02709 0.787537 3.51203 0.787537 2.97496C0.787537 2.4379 1.00088 1.92283 1.38065 1.54307C1.76041 1.16331 2.27547 0.949962 2.81254 0.949962C3.27778 0.948461 3.72935 1.10721 4.09131 1.39951C4.45327 1.69181 4.70354 2.09983 4.80004 2.55496C4.8259 2.6942 4.79538 2.83801 4.71521 2.95475C4.63504 3.07149 4.51178 3.1516 4.37254 3.17746C4.2333 3.20332 4.08949 3.17281 3.97275 3.09264C3.85601 3.01246 3.7759 2.8892 3.75004 2.74996C3.69867 2.5389 3.57879 2.35081 3.40917 2.21511C3.23954 2.07941 3.02973 2.00375 2.81254 1.99996C2.55395 1.99996 2.30596 2.10268 2.12311 2.28553C1.94026 2.46838 1.83754 2.71638 1.83754 2.97496C1.83754 3.23355 1.94026 3.48154 2.12311 3.66439C2.30596 3.84724 2.55395 3.94996 2.81254 3.94996C2.95178 3.94996 3.08531 4.00527 3.18377 4.10373C3.28222 4.20219 3.33754 4.33572 3.33754 4.47496C3.33754 4.6142 3.28222 4.74774 3.18377 4.84619C3.08531 4.94465 2.95178 4.99996 2.81254 4.99996Z" fill="#61738E"/>
<path d="M9.18752 4.99999C9.04828 4.99999 8.91474 4.94468 8.81629 4.84622C8.71783 4.74777 8.66252 4.61423 8.66252 4.47499C8.66252 4.33575 8.71783 4.20222 8.81629 4.10376C8.91474 4.0053 9.04828 3.94999 9.18752 3.94999C9.4461 3.97386 9.70358 3.89403 9.90331 3.72806C10.103 3.56209 10.2286 3.32358 10.2525 3.06499C10.2764 2.8064 10.1966 2.54893 10.0306 2.3492C9.86462 2.14947 9.6261 2.02386 9.36752 1.99999C9.23878 1.97442 9.10627 1.97451 8.97757 2.00025C8.84887 2.02599 8.72651 2.07688 8.61752 2.14999C8.42515 2.29777 8.29425 2.51148 8.25002 2.74999C8.23721 2.81893 8.21095 2.88468 8.17274 2.94348C8.13453 3.00227 8.08511 3.05297 8.0273 3.09266C7.9695 3.13236 7.90444 3.16028 7.83585 3.17484C7.76725 3.18939 7.69646 3.19029 7.62752 3.17749C7.55857 3.16469 7.49283 3.13843 7.43403 3.10022C7.37523 3.062 7.32454 3.01258 7.28484 2.95478C7.24515 2.89697 7.21722 2.83192 7.20267 2.76332C7.18811 2.69473 7.18721 2.62393 7.20002 2.55499C7.2376 2.2833 7.32999 2.02207 7.47158 1.78716C7.61317 1.55225 7.801 1.34855 8.02369 1.18842C8.24637 1.02829 8.49927 0.915073 8.76703 0.855627C9.03479 0.796182 9.31184 0.791751 9.58136 0.842605C9.85089 0.893459 10.1073 0.998537 10.335 1.15146C10.5627 1.30439 10.7569 1.50198 10.9059 1.73224C11.055 1.96251 11.1557 2.22064 11.2019 2.491C11.2482 2.76135 11.239 3.03828 11.175 3.30499C11.0971 3.77667 10.8548 4.20557 10.4911 4.51579C10.1274 4.82601 9.66558 4.99753 9.18752 4.99999Z" fill="#61738E"/>
</svg>
